<svg width="70" height="70" viewBox="0 0 70 70" fill="none" xmlns="http://www.w3.org/2000/svg">
<path fill-rule="evenodd" clip-rule="evenodd" d="M45.9375 15.3125C45.9375 12.4117 44.7852 9.6297 42.734 7.57852C40.6828 5.52734 37.9008 4.375 35 4.375C32.0992 4.375 29.3172 5.52734 27.266 7.57852C25.2148 9.6297 24.0625 12.4117 24.0625 15.3125V17.5H45.9375V15.3125ZM50.3125 15.3125V17.5H65.625V61.25C65.625 63.5706 64.7031 65.7962 63.0622 67.4372C61.4212 69.0781 59.1956 70 56.875 70H13.125C10.8044 70 8.57876 69.0781 6.93782 67.4372C5.29687 65.7962 4.375 63.5706 4.375 61.25V17.5H19.6875V15.3125C19.6875 11.2514 21.3008 7.35658 24.1724 4.48493C27.0441 1.61328 30.9389 0 35 0C39.0611 0 42.9559 1.61328 45.8276 4.48493C48.6992 7.35658 50.3125 11.2514 50.3125 15.3125ZM47.4863 38.7363C47.897 38.3255 48.1278 37.7684 48.1278 37.1875C48.1278 36.6066 47.897 36.0495 47.4863 35.6387C47.0755 35.228 46.5184 34.9972 45.9375 34.9972C45.3566 34.9972 44.7995 35.228 44.3887 35.6387L32.8125 47.2194L27.7987 42.2012C27.5954 41.9979 27.3539 41.8365 27.0882 41.7265C26.8224 41.6164 26.5376 41.5597 26.25 41.5597C25.9624 41.5597 25.6776 41.6164 25.4118 41.7265C25.1461 41.8365 24.9046 41.9979 24.7012 42.2012C24.4979 42.4046 24.3365 42.6461 24.2265 42.9118C24.1164 43.1776 24.0597 43.4624 24.0597 43.75C24.0597 44.0376 24.1164 44.3224 24.2265 44.5882C24.3365 44.8539 24.4979 45.0954 24.7012 45.2988L31.2637 51.8613C31.4669 52.065 31.7083 52.2266 31.9741 52.3369C32.2399 52.4471 32.5248 52.5039 32.8125 52.5039C33.1002 52.5039 33.3851 52.4471 33.6509 52.3369C33.9167 52.2266 34.1581 52.065 34.3612 51.8613L47.4863 38.7363Z" fill="white"/>
</svg>
