<svg width="40" height="33" viewBox="0 0 40 33" fill="none" xmlns="http://www.w3.org/2000/svg">
<path d="M12.565 32.5017C27.66 32.5017 35.9175 19.9942 35.9175 9.16673C35.9175 8.81673 35.9175 8.46173 35.9025 8.11173C37.5101 6.94795 38.8977 5.50711 40 3.85673C38.4983 4.51886 36.9069 4.95525 35.2775 5.15173C36.9938 4.12583 38.2793 2.51165 38.895 0.609233C37.2825 1.56454 35.5175 2.23517 33.6775 2.59173C32.4405 1.27429 30.8035 0.401527 29.0202 0.108627C27.2369 -0.184274 25.4068 0.119037 23.8133 0.971576C22.2199 1.82412 20.952 3.1783 20.2061 4.82438C19.4602 6.47046 19.2779 8.31656 19.6875 10.0767C16.4244 9.91311 13.232 9.0654 10.3176 7.58859C7.40317 6.11178 4.83171 4.03884 2.77 1.50423C1.72335 3.31194 1.40393 5.45023 1.87662 7.4849C2.3493 9.51956 3.57864 11.2981 5.315 12.4592C4.01385 12.415 2.7413 12.0656 1.6 11.4392V11.5517C1.60224 13.4454 2.25827 15.2803 3.45718 16.7461C4.6561 18.212 6.32437 19.2189 8.18 19.5967C7.47566 19.7908 6.74807 19.8875 6.0175 19.8842C5.50246 19.8858 4.98845 19.8381 4.4825 19.7417C5.00697 21.3719 6.02818 22.7971 7.40312 23.8179C8.77805 24.8387 10.4378 25.4039 12.15 25.4342C9.24139 27.7187 5.6485 28.9577 1.95 28.9517C1.2983 28.9545 0.647058 28.9169 0 28.8392C3.75379 31.2324 8.11324 32.5031 12.565 32.5017Z" fill="white"/>
</svg>
